<?xml version="1.0" standalone="no"?>
<!DOCTYPE svg PUBLIC "-//W3C//DTD SVG 20010904//EN"
 "http://www.w3.org/TR/2001/REC-SVG-20010904/DTD/svg10.dtd">
<svg version="1.0" xmlns="http://www.w3.org/2000/svg"
 width="900.000000pt" height="812.000000pt" viewBox="0 0 900.000000 812.000000"
 preserveAspectRatio="xMidYMid meet">
<metadata>
Created by potrace 1.16, written by Peter Selinger 2001-2019
</metadata>
<g transform="translate(0.000000,812.000000) scale(0.100000,-0.100000)"
fill="#000000" stroke="none">
<path d="M1041 7388 c14 -27 97 -171 624 -1083 219 -379 588 -1018 820 -1420
231 -401 573 -994 760 -1317 186 -324 341 -588 345 -588 3 0 248 420 545 933
296 512 641 1108 765 1322 619 1067 1240 2142 1246 2158 6 16 -28 17 -632 17
l-639 0 -184 -307 c-101 -170 -390 -654 -643 -1077 l-460 -768 -82 138 c-45
77 -328 561 -630 1077 l-549 937 -649 0 -649 0 12 -22z"/>
<path d="M2827 7378 c11 -18 190 -324 398 -681 298 -509 381 -645 391 -635 6
7 47 74 91 148 44 74 217 365 385 645 168 281 310 520 317 533 l12 22 -807 0
-806 0 19 -32z"/>
<path d="M6370 6919 c-157 -271 -286 -496 -288 -500 -2 -5 290 -9 650 -9 l653
1 86 147 c47 81 177 302 289 492 111 190 205 348 207 353 2 4 -292 7 -654 7
l-658 0 -285 -491z"/>
<path d="M5782 5903 c-22 -38 -461 -797 -977 -1688 -516 -891 -944 -1632 -953
-1646 -15 -26 -13 -31 88 -205 420 -730 513 -890 519 -896 4 -4 75 108 158
250 202 344 638 1083 968 1642 147 250 348 590 445 755 97 165 253 428 345
585 93 157 294 499 448 760 153 261 283 479 288 484 5 6 9 14 9 18 0 4 -292 8
-649 8 l-649 0 -40 -67z"/>
</g>
</svg>
